<svg id="_7636acbcc71b8dd66663cd1cd892a83d" data-name="7636acbcc71b8dd66663cd1cd892a83d" xmlns="http://www.w3.org/2000/svg" width="37.177" height="40.733" viewBox="0 0 37.177 40.733">
  <path id="Path_28" data-name="Path 28" d="M48.012,25.049l-1.778-.97a.648.648,0,0,0-.619,0l-1.778.97a.647.647,0,0,0-.337.568v1.94a.647.647,0,0,0,.337.568l1.778.97a.647.647,0,0,0,.619,0l1.778-.97a.647.647,0,0,0,.337-.568v-1.94a.647.647,0,0,0-.337-.568Zm-.956,2.123-1.131.617-1.131-.617V26l1.131-.617L47.056,26Z" transform="translate(-38.004 -24)" fill="#707070"/>
  <path id="Path_41" data-name="Path 41" d="M48.012,25.049l-1.778-.97a.648.648,0,0,0-.619,0l-1.778.97a.647.647,0,0,0-.337.568v1.94a.647.647,0,0,0,.337.568l1.778.97a.647.647,0,0,0,.619,0l1.778-.97a.647.647,0,0,0,.337-.568v-1.94a.647.647,0,0,0-.337-.568Zm-.956,2.123-1.131.617-1.131-.617V26l1.131-.617L47.056,26Z" transform="translate(-38.004 11.56)" fill="#707070"/>
  <path id="Path_29" data-name="Path 29" d="M26.837,40.124l1.778.97a.647.647,0,0,0,.619,0l1.778-.97a.647.647,0,0,0,.337-.568v-1.94a.647.647,0,0,0-.337-.568l-1.778-.97a.648.648,0,0,0-.619,0l-1.778.97a.647.647,0,0,0-.337.568v1.94a.647.647,0,0,0,.337.568ZM27.793,38l1.131-.617L30.056,38v1.172l-1.131.617-1.131-.617Z" transform="translate(-26.5 -32.121)" fill="#ff8a30"/>
  <path id="Path_30" data-name="Path 30" d="M109.837,28.124l1.778.97a.647.647,0,0,0,.619,0l1.778-.97a.647.647,0,0,0,.337-.568v-1.94a.647.647,0,0,0-.337-.568l-1.778-.97a.648.648,0,0,0-.619,0l-1.778.97a.647.647,0,0,0-.337.568v1.94a.647.647,0,0,0,.337.568ZM110.793,26l1.131-.617,1.131.617v1.172l-1.131.617-1.131-.617Z" transform="translate(-82.668 -24)" fill="#707070"/>
  <path id="Path_42" data-name="Path 42" d="M109.837,28.124l1.778.97a.647.647,0,0,0,.619,0l1.778-.97a.647.647,0,0,0,.337-.568v-1.94a.647.647,0,0,0-.337-.568l-1.778-.97a.648.648,0,0,0-.619,0l-1.778.97a.647.647,0,0,0-.337.568v1.94a.647.647,0,0,0,.337.568ZM110.793,26l1.131-.617,1.131.617v1.172l-1.131.617-1.131-.617Z" transform="translate(-82.668 11.56)" fill="#707070"/>
  <path id="Path_31" data-name="Path 31" d="M63.34,31.635l-1.778-.97a.648.648,0,0,0-.619,0l-1.778.97a.647.647,0,0,0-.337.568v1.94a.647.647,0,0,0,.337.568l1.778.97a.647.647,0,0,0,.619,0l1.778-.97a.647.647,0,0,0,.337-.568V32.2a.647.647,0,0,0-.337-.568Zm-.956,2.123-1.131.617-1.131-.617V32.586l1.131-.617,1.131.617ZM43,32.124l1.778.97a.647.647,0,0,0,.619,0l1.778-.97a.647.647,0,0,0,.337-.568v-1.94a.647.647,0,0,0-.337-.568l-1.778-.97a.648.648,0,0,0-.619,0L43,29.049a.647.647,0,0,0-.337.568v1.94a.647.647,0,0,0,.337.568ZM43.957,30l1.131-.617L46.22,30v1.172l-1.131.617-1.131-.617ZM31.012,60.083l-1.778-.97a.646.646,0,0,0-.619,0l-1.778.97a.647.647,0,0,0-.337.568v1.94a.647.647,0,0,0,.337.568l1.778.97a.647.647,0,0,0,.619,0l1.778-.97a.647.647,0,0,0,.337-.568v-1.94a.647.647,0,0,0-.337-.568Zm-.956,2.123-1.131.617-1.131-.617V61.035l1.131-.617,1.131.617ZM63.34,60.083l-1.778-.97a.646.646,0,0,0-.619,0l-1.778.97a.647.647,0,0,0-.337.568v1.94a.647.647,0,0,0,.337.568l1.778.97a.647.647,0,0,0,.619,0l1.778-.97a.647.647,0,0,0,.337-.568v-1.94a.647.647,0,0,0-.337-.568Zm-.956,2.123-1.131.617-1.131-.617V61.035l1.131-.617,1.131.617Zm-15.208.463L45.4,61.7a.646.646,0,0,0-.619,0L43,62.669a.647.647,0,0,0-.337.568v1.94a.647.647,0,0,0,.337.568l1.778.97a.647.647,0,0,0,.619,0l1.778-.97a.647.647,0,0,0,.337-.568v-1.94a.647.647,0,0,0-.337-.568Zm-.956,2.123-1.131.617-1.131-.617V63.621L45.088,63l1.131.617Z" transform="translate(-26.5 -26.707)" fill="#ff8a30"/>
  <path id="Path_32" data-name="Path 32" d="M67.112,44.94V48.4a1.936,1.936,0,0,1,1.293,0V44.94A1.891,1.891,0,0,1,67.112,44.94ZM77.78,54.753a1.294,1.294,0,0,0,1.293-1.293V43.647a1.891,1.891,0,0,1-1.293,0v9.812H76.695a1.931,1.931,0,0,1,.115.647v.647Zm-2.6-1.214-7.112-3.879a.648.648,0,0,0-.619,0l-7.112,3.879a.647.647,0,0,0-.337.568v7.759a.647.647,0,0,0,.337.568l7.112,3.879a.647.647,0,0,0,.619,0l7.112-3.879a.647.647,0,0,0,.337-.568V54.106a.647.647,0,0,0-.337-.568Z" transform="translate(-49.17 -37.296)" fill="#707070"/>
  <path id="Path_33" data-name="Path 33" d="M72.242,73.08,69.332,74.7a.647.647,0,0,0-.332.565v2.909a.647.647,0,1,0,1.293,0V75.642l2.577-1.432a.647.647,0,0,0-.628-1.13Z" transform="translate(-55.261 -57.159)" fill="#fff"/>
  <path id="Path_34" data-name="Path 34" d="M49.647,43.761A1.939,1.939,0,0,1,49,43.647v9.812a1.294,1.294,0,0,0,1.293,1.293h.97v-.647a1.932,1.932,0,0,1,.115-.647H50.293V43.647a1.938,1.938,0,0,1-.647.114Z" transform="translate(-41.726 -37.296)" fill="#707070"/>
  <path id="Path_35" data-name="Path 35" d="M33.293,63.52V55.647a1.891,1.891,0,0,1-1.293,0V63.52a1.942,1.942,0,0,0,1.94,1.94h5.819V64.166H33.94a.647.647,0,0,1-.647-.647Zm32.328-7.873a1.891,1.891,0,0,1-1.293,0V63.52a.647.647,0,0,1-.647.647H57.862v1.293h5.819a1.942,1.942,0,0,0,1.94-1.94Zm-.647,20.8a1.938,1.938,0,0,1,.647.114V68.692a1.942,1.942,0,0,0-1.94-1.94H57.862v1.293h5.819a.648.648,0,0,1,.647.647v7.872A1.939,1.939,0,0,1,64.974,76.451Zm-25.216-9.7H33.94A1.942,1.942,0,0,0,32,68.692v7.872a1.891,1.891,0,0,1,1.293,0V68.692a.648.648,0,0,1,.647-.647h5.819Z" transform="translate(-30.222 -45.416)" fill="#707070"/>
  <path id="Path_36" data-name="Path 36" d="M70.983,108.991a1.939,1.939,0,0,1,.647.114V99.293A1.294,1.294,0,0,0,70.336,98h-.97v.647a1.931,1.931,0,0,1-.115.647h1.085v9.812A1.939,1.939,0,0,1,70.983,108.991Zm-10.022-1.179v-3.461a1.891,1.891,0,0,1-1.293,0v3.461A1.891,1.891,0,0,1,60.961,107.812Zm-10.668,1.293V99.293h1.085a1.931,1.931,0,0,1-.115-.647V98h-.97A1.294,1.294,0,0,0,49,99.293v9.812a1.891,1.891,0,0,1,1.293,0Z" transform="translate(-41.726 -74.078)" fill="#707070"/>
</svg>
