<svg xmlns="http://www.w3.org/2000/svg" xmlns:xlink="http://www.w3.org/1999/xlink" width="6043.174" height="773.915" viewBox="0 0 6043.174 773.915">
  <defs>
    <clipPath id="clip-path">
      <path id="Path_1320" data-name="Path 1320" d="M2013.719,806.144h-211.44l-130.9-234.15h187.266l155.07,234.15Zm19.133-551.662h195.342V806.144h173.174V254.454h197.347V103.639h-565.89V254.454ZM491.363,103.639H658.52v738.2l-493.4-430.6V806.144H0V67.92L491.363,498.551Zm777.33,0V242.557H958.58V367.573h290v136.94h-290V667.225h310.113V806.144H793.455v-702.5Zm398.76,468.328-134.962,234.15H1319.046l243.663-361.171L1343.22,103.612h213.445l110.788,204.394,112.766-204.394h213.445c-61.844,96.126-247.674,390.982-326.211,468.328Z" transform="translate(0 -67.92)" fill="none"/>
    </clipPath>
    <clipPath id="clip-path-2">
      <rect id="Rectangle_747" data-name="Rectangle 747" width="3443.472" height="1838.296" fill="none"/>
    </clipPath>
    <clipPath id="clip-path-3">
      <rect id="Rectangle_746" data-name="Rectangle 746" width="3439.65" height="1834.475" fill="none"/>
    </clipPath>
    <linearGradient id="linear-gradient" x1="0.077" y1="0.926" x2="1.107" y2="-0.111" gradientUnits="objectBoundingBox">
      <stop offset="0" stop-color="#828ef9"/>
      <stop offset="1" stop-color="#2da8ff"/>
    </linearGradient>
    <linearGradient id="linear-gradient-2" x1="0.104" y1="0.386" x2="1.277" y2="0.398" gradientUnits="objectBoundingBox">
      <stop offset="0" stop-color="#5182b7"/>
      <stop offset="1" stop-color="#83daf7"/>
    </linearGradient>
  </defs>
  <g id="Group_622" data-name="Group 622" transform="translate(-13175.998 -4386)">
    <path id="Path_1310" data-name="Path 1310" d="M22775-15015c-12.609,0-25.164-.557-37.312-1.655s-24.234-2.77-35.937-4.968-23.334-4.986-34.562-8.28A346.762,346.762,0,0,1,22634-15041.5c-10.789-4.4-21.365-9.322-31.436-14.628a338.369,338.369,0,0,1-29.312-17.376,331.456,331.456,0,0,1-27.189-20.124A334.635,334.635,0,0,1,22521-15116.5a335.834,335.834,0,0,1-22.656-25.343,335.976,335.976,0,0,1-19.969-27.532c-6.182-9.5-11.994-19.5-17.281-29.722s-10.2-20.948-14.6-31.906c-4.244-10.568-8.025-21.52-11.244-32.55s-5.967-22.458-8.16-33.946h92.094a266.961,266.961,0,0,0,11.016,33.9,255.344,255.344,0,0,0,15.3,31.6,280.7,280.7,0,0,0,19.279,29.313,261,261,0,0,0,22.346,25.937,255.021,255.021,0,0,0,25.406,22.562A262.836,262.836,0,0,0,22641-15135a254.406,254.406,0,0,0,30.873,15.313,253.3,253.3,0,0,0,32.625,10.938,266.264,266.264,0,0,0,34.375,6.563A294.341,294.341,0,0,0,22775-15100a303.22,303.22,0,0,0,49.375-3.875c7.756-1.286,15.4-2.916,22.719-4.845s14.527-4.212,21.4-6.781a227.663,227.663,0,0,0,38.627-18.624A202.349,202.349,0,0,0,22940-15159a252.513,252.513,0,0,0,27.375-30,251.648,251.648,0,0,0,22.123-34,288.956,288.956,0,0,0,16.877-37.25A300.539,300.539,0,0,0,23018-15300h-233v-80H23110c0,12.106-.461,24.229-1.375,36.031-.91,11.787-2.3,23.595-4.125,35.095s-4.137,22.986-6.875,34.157-5.971,22.345-9.623,33.219-7.8,21.592-12.312,31.844-9.537,20.352-14.937,30.029-11.3,19.159-17.562,28.221-13.051,17.943-20.187,26.407a305.7,305.7,0,0,1-22.719,24.154,302.859,302.859,0,0,1-25.158,21.469,311.44,311.44,0,0,1-27.6,18.781,331.4,331.4,0,0,1-30.031,16.1,288,288,0,0,1-32.34,12.9,311.415,311.415,0,0,1-34.529,9.219,349.162,349.162,0,0,1-36.719,5.531C22801.365-15015.621,22788.273-15015,22775-15015Zm1645-10h0l-95,0-89.256-210h-281.967L23865-15025h-95l325-735L24420-15025Zm-325-542-106.973,252h214.2L24095-15567ZM24865-15025h-360l0-700h85l0,620H24865Zm-1190,0h-85v-620h-180V-15725h445l0,79.994h-180Zm-1375,0h-85l0-700h85Zm1020,0h-85v-700h85l0,700,0,0h0v0Zm-1575,0h-210v-700h210a438.228,438.228,0,0,1,49.563,2.75,381.851,381.851,0,0,1,46.688,8.249,347.133,347.133,0,0,1,43.811,13.748A331.962,331.962,0,0,1,21926-15681a336.045,336.045,0,0,1,37.373,24.158,317.6,317.6,0,0,1,33.123,28.47,317.433,317.433,0,0,1,28.877,32.783A336.72,336.72,0,0,1,22050-15558.5a318.449,318.449,0,0,1,19.684,40.906,339.612,339.612,0,0,1,14.063,44.219,382.469,382.469,0,0,1,8.438,47.531A448.959,448.959,0,0,1,22095-15375a448.907,448.907,0,0,1-2.816,50.843,382.646,382.646,0,0,1-8.437,47.53,339.91,339.91,0,0,1-14.062,44.219,318.555,318.555,0,0,1-19.684,40.9,336.5,336.5,0,0,1-24.629,37.1,317.681,317.681,0,0,1-28.877,32.782,317.567,317.567,0,0,1-33.123,28.469A335.981,335.981,0,0,1,21926-15069a331.882,331.882,0,0,1-40.939,19.249,347.554,347.554,0,0,1-43.811,13.75,381.942,381.942,0,0,1-46.687,8.25A438.071,438.071,0,0,1,21745-15025Zm-125-615h0v530h125c9.783,0,19.5-.39,28.875-1.157s18.67-1.936,27.623-3.47,17.838-3.481,26.377-5.783,16.986-5.021,25.125-8.093,16.082-6.52,23.623-10.249A242.964,242.964,0,0,0,21898.5-15151a231.248,231.248,0,0,0,20.125-14.251A227.892,227.892,0,0,0,21937-15181.5a223.85,223.85,0,0,0,16.5-18.157,227.9,227.9,0,0,0,14.5-19.969,240.229,240.229,0,0,0,12.5-21.781c3.809-7.514,7.342-15.452,10.5-23.594a261.551,261.551,0,0,0,8.314-25.25c2.363-8.635,4.361-17.635,5.938-26.751s2.775-18.629,3.564-28.249,1.188-19.641,1.188-29.748-.4-20.118-1.187-29.751-1.988-19.126-3.564-28.251-3.574-18.117-5.937-26.75A261.283,261.283,0,0,0,21991-15485c-3.156-8.139-6.689-16.076-10.5-23.594a240.02,240.02,0,0,0-12.5-21.78,228.344,228.344,0,0,0-14.5-19.969,223.85,223.85,0,0,0-16.5-18.157,228.083,228.083,0,0,0-18.373-16.247A231.578,231.578,0,0,0,21898.5-15599a243.452,243.452,0,0,0-21.873-12.251c-7.559-3.738-15.508-7.187-23.623-10.252-8.131-3.069-16.584-5.791-25.125-8.092s-17.424-4.247-26.377-5.78-18.254-2.7-27.623-3.468-19.084-1.156-28.875-1.156h-125Zm898.059,191.5h-91.709a369.755,369.755,0,0,1,8.348-36.029,353.263,353.263,0,0,1,11.8-34.469c4.4-10.955,9.311-21.689,14.6-31.9s11.1-20.22,17.281-29.719a336,336,0,0,1,19.969-27.533A336.157,336.157,0,0,1,22521-15633.5a335.029,335.029,0,0,1,25.063-22.874,331.644,331.644,0,0,1,27.189-20.123,338.588,338.588,0,0,1,29.313-17.374c10.061-5.3,20.639-10.222,31.436-14.625a346.353,346.353,0,0,1,33.188-11.6c11.238-3.3,22.867-6.083,34.563-8.281s23.775-3.868,35.938-4.969c12.146-1.1,24.7-1.655,37.313-1.655,10.781,0,21.5.357,31.844,1.063s20.619,1.777,30.529,3.187,19.744,3.2,29.221,5.313,18.863,4.615,27.908,7.437,17.977,6.017,26.561,9.5,17.063,7.355,25.188,11.5,16.139,8.69,23.811,13.5,15.211,10.02,22.438,15.5,14.258,11.368,20.906,17.5c6.67,6.151,13.135,12.712,19.217,19.5s11.994,14.034,17.531,21.5,10.861,15.361,15.846,23.5l-59.994,55a234.642,234.642,0,0,0-18.129-26.47,226.192,226.192,0,0,0-21.375-23.407,231.259,231.259,0,0,0-24.623-20.344,250.906,250.906,0,0,0-27.875-17.28,245.7,245.7,0,0,0-30.814-13.781,270.236,270.236,0,0,0-33.437-9.844,311.437,311.437,0,0,0-36.062-5.907A371.172,371.172,0,0,0,22775-15650a294.631,294.631,0,0,0-36.125,2.188,266.573,266.573,0,0,0-34.375,6.563,253.242,253.242,0,0,0-32.625,10.938A254.273,254.273,0,0,0,22641-15615a265.7,265.7,0,0,0-28.471,19.156,256.761,256.761,0,0,0-25.406,22.469,261.48,261.48,0,0,0-22.346,25.78,279.608,279.608,0,0,0-19.279,29.094,249.8,249.8,0,0,0-16.152,33.594,267.051,267.051,0,0,0-11.285,36.4Z" transform="translate(-8359 20146)" fill="#f2f2f2"/>
    <g id="Layer_1" data-name="Layer 1" transform="translate(16620.457 4318.08)">
      <g id="Group_621" data-name="Group 621" transform="translate(0 67.92)">
        <g id="Group_620" data-name="Group 620" clip-path="url(#clip-path)">
          <g id="Group_619" data-name="Group 619" transform="translate(-128.295 -619.766)" clip-path="url(#clip-path-2)">
            <g id="Group_613" data-name="Group 613" transform="translate(1.924 1.897)" clip-path="url(#clip-path-3)">
              <rect id="Rectangle_745" data-name="Rectangle 745" width="3439.65" height="1834.475" fill="url(#linear-gradient)"/>
            </g>
            <g id="Group_614" data-name="Group 614" transform="translate(1.924 1.897)">
              <path id="Path_1315" data-name="Path 1315" d="M1667.816-160.07l375.074,375.1c298.189,298.189,298.189,786.111,0,1084.3l-375.1,375.1H-46.63V-160.07Z" transform="translate(46.63 160.07)" fill-rule="evenodd" fill="url(#linear-gradient-2)"/>
            </g>
            <g id="Group_615" data-name="Group 615" transform="translate(1.924 1.897)">
              <path id="Path_1316" data-name="Path 1316" d="M1226.426-160.07l463.368,463.4c249.625,249.625,249.625,658.087,0,907.712l-463.4,463.4H-46.63V-160.07Z" transform="translate(46.63 160.07)" fill-rule="evenodd" fill="url(#linear-gradient-2)"/>
            </g>
            <g id="Group_616" data-name="Group 616" transform="translate(1.924 1.897)">
              <path id="Path_1317" data-name="Path 1317" d="M751.622-160.07l551.689,551.689c201.06,201.06,201.06,530.063,0,731.15L751.649,1674.432H-46.63V-160.07Z" transform="translate(46.63 160.07)" fill-rule="evenodd" fill="url(#linear-gradient-2)"/>
            </g>
            <g id="Group_617" data-name="Group 617" transform="translate(1.924 1.897)">
              <path id="Path_1318" data-name="Path 1318" d="M283.511-160.07,923.494,479.886c152.5,152.5,152.5,402.066,0,554.562L283.538,1674.4H-46.63V-160.07Z" transform="translate(46.63 160.07)" fill-rule="evenodd" fill="url(#linear-gradient-2)"/>
            </g>
            <g id="Group_618" data-name="Group 618" transform="translate(1.924 179.949)">
              <path id="Path_1319" data-name="Path 1319" d="M-46.63-94.37l550.2,550.2c103.958,103.958,103.958,274.043,0,378l-550.2,550.2Z" transform="translate(46.63 94.37)" fill-rule="evenodd" fill="url(#linear-gradient-2)"/>
            </g>
          </g>
        </g>
      </g>
    </g>
  </g>
</svg>
