<svg xmlns="http://www.w3.org/2000/svg" width="54" height="54" viewBox="0 0 54 54">
  <g id="_459ffd73cfab0be0e7225e348e5f32c2" data-name="459ffd73cfab0be0e7225e348e5f32c2" transform="translate(0 0.109)">
    <rect id="Rectangle_53" data-name="Rectangle 53" width="54" height="54" transform="translate(0 -0.109)" fill="none"/>
    <path id="Path_14" data-name="Path 14" d="M74.054,77.017l-7.832,7.832a1.7,1.7,0,0,1-1.617.448L52.27,82.212a1.7,1.7,0,0,1-.636-.311L40,72.8l6.933-13.043,10.923-3.184a1.7,1.7,0,0,1,1.178.083l7.358,3.329h-4.4a1.7,1.7,0,0,0-1.2.5l-8.329,8.329a1.7,1.7,0,0,0,.182,2.566l1.154.865a6.811,6.811,0,0,0,8.173,0l2.724-2.043Z" transform="translate(-31.571 -44.968)" fill="#327374"/>
    <path id="Path_15" data-name="Path 15" d="M59.783,71.937l-5.261,2.63L47.711,61.524l5.314-2.657A1.7,1.7,0,0,1,55.3,59.6l5.234,10.024a1.7,1.7,0,0,1-.748,2.311Zm-42.721,2.4L11.8,71.709a1.7,1.7,0,0,1-.748-2.311l5.234-10.024a1.7,1.7,0,0,1,2.271-.735L23.873,61.3Zm37.46.228-3.405,3.984-7.832,7.832a1.7,1.7,0,0,1-1.617.448L29.332,83.747a1.7,1.7,0,0,1-.636-.311l-11.634-9.1" transform="translate(-8.634 -46.503)" fill="none" stroke="#707070" stroke-linecap="round" stroke-linejoin="round" stroke-width="2"/>
    <path id="Path_16" data-name="Path 16" d="M118.276,89.889l-9.365-6.811-2.724,2.043a6.811,6.811,0,0,1-8.173,0l-1.154-.865a1.7,1.7,0,0,1-.182-2.566l8.329-8.329a1.7,1.7,0,0,1,1.2-.5h8.66" transform="translate(-75.794 -57.841)" fill="none" stroke="#707070" stroke-linecap="round" stroke-linejoin="round" stroke-width="2"/>
    <path id="Path_17" data-name="Path 17" d="M59.528,59.761l10.923-3.184a1.7,1.7,0,0,1,1.178.083l7.358,3.329m-11.068,29.8-6.415-1.6a1.7,1.7,0,0,1-.7-.367L56,83.644" transform="translate(-44.166 -44.968)" fill="none" stroke="#707070" stroke-linecap="round" stroke-linejoin="round" stroke-width="2"/>
  </g>
</svg>
