<svg id="Layer_11" data-name="Layer 11" xmlns="http://www.w3.org/2000/svg" width="24.667" height="37" viewBox="0 0 24.667 37">
  <path id="Path_22" data-name="Path 22" d="M16,4a10.959,10.959,0,0,1,6.852,19.514v7.893c.005,1.819-.715-1.854-2-.568S17.819,32.072,16,32.066Z" transform="translate(-3.666 -2.63)" fill="#327374"/>
  <path id="Path_25" data-name="Path 25" d="M22.561,12.4a1.37,1.37,0,0,0-1.938,0l-3.142,3.142L14.339,12.4A1.37,1.37,0,1,0,12.4,14.339l3.71,3.709v10.4h2.741v-10.4l3.71-3.71a1.37,1.37,0,0,0,0-1.938Z" transform="translate(-5.148 0.333)" fill="#e1effa"/>
  <path id="Path_26" data-name="Path 26" d="M16,15.544,19.142,12.4a1.37,1.37,0,1,1,1.938,1.938l-3.71,3.709v10.4H16Z" transform="translate(-3.666 0.333)" fill="#bbdbfa"/>
  <path id="Path_27" data-name="Path 27" d="M19.333,3a12.331,12.331,0,0,0-8.222,21.522v7.256a8.222,8.222,0,0,0,16.444,0V24.522A12.331,12.331,0,0,0,19.333,3Zm0,34.259a5.49,5.49,0,0,1-5.307-4.111H24.641A5.49,5.49,0,0,1,19.333,37.259Zm6-14.445a1.373,1.373,0,0,0-.515,1.07v6.523H20.7V21.382l3.71-3.71a1.37,1.37,0,1,0-1.938-1.938l-3.142,3.142-3.142-3.142a1.37,1.37,0,1,0-1.938,1.938l3.71,3.709v9.025H13.852V23.884a1.373,1.373,0,0,0-.515-1.072,9.593,9.593,0,1,1,11.993,0Z" transform="translate(-7 -3)" fill="#707070"/>
</svg>
