<svg id="Layer_11" data-name="Layer 11" xmlns="http://www.w3.org/2000/svg" width="29.846" height="44.769" viewBox="0 0 29.846 44.769">
  <path id="Path_22" data-name="Path 22" d="M16,4a13.26,13.26,0,0,1,8.29,23.611v9.551c.007,2.2-.865-2.243-2.421-.687S18.2,37.966,16,37.959Z" transform="translate(-1.077 -2.342)" fill="#ff8a30"/>
  <path id="Path_25" data-name="Path 25" d="M24.779,12.486a1.658,1.658,0,0,0-2.345,0l-3.8,3.8-3.8-3.8a1.658,1.658,0,1,0-2.345,2.345l4.489,4.488V31.9H20.29V19.319l4.488-4.488a1.658,1.658,0,0,0,0-2.345Z" transform="translate(-3.709 2.923)" fill="#e1effa"/>
  <path id="Path_26" data-name="Path 26" d="M16,16.288l3.8-3.8a1.658,1.658,0,1,1,2.345,2.345l-4.489,4.488V31.9H16Z" transform="translate(-1.077 2.923)" fill="#bbdbfa"/>
  <path id="Path_27" data-name="Path 27" d="M21.923,3a14.92,14.92,0,0,0-9.949,26.04v8.78a9.949,9.949,0,1,0,19.9,0V29.04A14.92,14.92,0,0,0,21.923,3Zm0,41.452A6.642,6.642,0,0,1,15.5,39.478H28.345A6.642,6.642,0,0,1,21.923,44.452Zm7.256-17.478a1.661,1.661,0,0,0-.623,1.295v7.893H23.581V25.242l4.488-4.488a1.658,1.658,0,1,0-2.345-2.345l-3.8,3.8-3.8-3.8a1.658,1.658,0,1,0-2.345,2.345l4.489,4.488v10.92H15.291V28.269a1.661,1.661,0,0,0-.623-1.3,11.607,11.607,0,1,1,14.512,0Z" transform="translate(-7 -3)" fill="#707070"/>
</svg>
