<svg xmlns="http://www.w3.org/2000/svg" width="58.821" height="58.308" viewBox="0 0 58.821 58.308">
  <g id="_35320b0d64f3fb53a0fc7272bdd93a9a" data-name="35320b0d64f3fb53a0fc7272bdd93a9a" transform="translate(0 21.787) rotate(-30)">
    <path id="Path_11" data-name="Path 11" d="M9.722,4.868A4.861,4.861,0,1,1,4.861,0,4.864,4.864,0,0,1,9.722,4.868Z" transform="translate(1.954 27.683)" fill="#327374"/>
    <path id="Path_12" data-name="Path 12" d="M39.89,26.5A18.34,18.34,0,0,0,40.081,24,18.13,18.13,0,0,0,28.357,7.026c0-.075.014-.143.014-.211a6.815,6.815,0,0,0-13.63,0c0,.163.014.327.02.49A18.272,18.272,0,0,0,3.745,24a18.537,18.537,0,0,0,.17,2.39,6.81,6.81,0,1,0,6.7,11.812A18.068,18.068,0,0,0,33.1,38.29,6.807,6.807,0,1,0,39.89,26.5ZM21.555,1.954a4.865,4.865,0,1,1-4.868,4.861A4.864,4.864,0,0,1,21.555,1.954ZM6.815,37.412a4.865,4.865,0,1,1,4.861-4.861A4.864,4.864,0,0,1,6.815,37.412Zm15.1,2.805a16.152,16.152,0,0,1-9.838-3.343A6.81,6.81,0,0,0,6.815,25.735a6.939,6.939,0,0,0-1.008.082A16.085,16.085,0,0,1,5.692,24a16.319,16.319,0,0,1,9.5-14.76,6.805,6.805,0,0,0,12.82-.266A16.2,16.2,0,0,1,38.127,24a16.8,16.8,0,0,1-.116,1.852,6.915,6.915,0,0,0-1.253-.116A6.806,6.806,0,0,0,31.6,36.99,16.175,16.175,0,0,1,21.916,40.217Zm14.842-2.805a4.865,4.865,0,1,1,4.861-4.861A4.864,4.864,0,0,1,36.758,37.412Z" transform="translate(0 0)" fill="#707070"/>
    <path id="Path_13" data-name="Path 13" d="M9.729,4.861A4.865,4.865,0,1,1,4.868,0,4.87,4.87,0,0,1,9.729,4.861ZM24.932,30.6a4.861,4.861,0,1,1-4.861-4.868A4.864,4.864,0,0,1,24.932,30.6Z" transform="translate(16.687 1.954)" fill="#327374"/>
  </g>
</svg>
